<?xml version="1.0" encoding="UTF-8"?>
<svg width="16px" height="16px" viewBox="0 0 16 16" version="1.1" xmlns="http://www.w3.org/2000/svg" xmlns:xlink="http://www.w3.org/1999/xlink">
    <title>企业管理_未选中</title>
    <g id="虚拟人资产管理" stroke="none" stroke-width="1" fill="none" fill-rule="evenodd">
        <g id="切图合集" transform="translate(-86.000000, -120.000000)" fill="currentColor" fill-rule="nonzero">
            <g id="企业管理-未选中" transform="translate(86.000000, 120.000000)">
                <path d="M15.4666667,13.1628959 L14.9333333,13.1628959 L14.9333333,6.0678733 C14.9333333,4.95294118 13.9733333,4.04072398 12.8,4.04072398 L9.6,4.04072398 L9.6,3.02714932 C9.6,1.91221719 8.64,1 7.46666667,1 L3.2,1 C2.02666667,1 1.06666667,1.91221719 1.06666667,3.02714932 L1.06666667,13.1628959 L0.533333333,13.1628959 C0.234666667,13.1628959 0,13.3858824 0,13.6696833 C0,13.9534842 0.234666667,14.1764706 0.533333333,14.1764706 L15.4666667,14.1764706 C15.7653333,14.1764706 16,13.9534842 16,13.6696833 C16,13.3858824 15.7653333,13.1628959 15.4666667,13.1628959 Z M8.47058824,3.99465241 L8.47058824,5.02139037 L8.47058824,13.2352941 L1.88235294,13.2352941 L1.88235294,2.96791444 C1.88235294,2.40320856 2.37647059,1.94117647 2.98039216,1.94117647 L7.37254902,1.94117647 C7.97647059,1.94117647 8.47058824,2.40320856 8.47058824,2.96791444 L8.47058824,3.99465241 Z M14.1176471,13.2352941 L9.41176471,13.2352941 L9.41176471,4.76470588 L12.9411765,4.76470588 C13.5882353,4.76470588 14.1176471,5.24117647 14.1176471,5.82352941 L14.1176471,13.2352941 Z M6.94117647,3.82352941 L3.41176471,3.82352941 C3.08235294,3.82352941 2.82352941,4.03058824 2.82352941,4.29411765 C2.82352941,4.55764706 3.08235294,4.76470588 3.41176471,4.76470588 L6.94117647,4.76470588 C7.27058824,4.76470588 7.52941176,4.55764706 7.52941176,4.29411765 C7.52941176,4.03058824 7.27058824,3.82352941 6.94117647,3.82352941 Z M6.94117647,7.58823529 L3.41176471,7.58823529 C3.08235294,7.58823529 2.82352941,7.79529412 2.82352941,8.05882353 C2.82352941,8.32235294 3.08235294,8.52941176 3.41176471,8.52941176 L6.94117647,8.52941176 C7.27058824,8.52941176 7.52941176,8.32235294 7.52941176,8.05882353 C7.52941176,7.79529412 7.27058824,7.58823529 6.94117647,7.58823529 Z M6.94117647,10.4117647 L3.41176471,10.4117647 C3.08235294,10.4117647 2.82352941,10.6188235 2.82352941,10.8823529 C2.82352941,11.1458824 3.08235294,11.3529412 3.41176471,11.3529412 L6.94117647,11.3529412 C7.27058824,11.3529412 7.52941176,11.1458824 7.52941176,10.8823529 C7.52941176,10.6188235 7.27058824,10.4117647 6.94117647,10.4117647 Z M11.7647059,7.58823529 L10.8235294,7.58823529 C10.56,7.58823529 10.3529412,7.79529412 10.3529412,8.05882353 C10.3529412,8.32235294 10.56,8.52941176 10.8235294,8.52941176 L11.7647059,8.52941176 C12.0282353,8.52941176 12.2352941,8.32235294 12.2352941,8.05882353 C12.2352941,7.79529412 12.0282353,7.58823529 11.7647059,7.58823529 Z M11.7647059,10.4117647 L10.8235294,10.4117647 C10.56,10.4117647 10.3529412,10.6188235 10.3529412,10.8823529 C10.3529412,11.1458824 10.56,11.3529412 10.8235294,11.3529412 L11.7647059,11.3529412 C12.0282353,11.3529412 12.2352941,11.1458824 12.2352941,10.8823529 C12.2352941,10.6188235 12.0282353,10.4117647 11.7647059,10.4117647 Z" id="企业管理icon"></path>
            </g>
        </g>
    </g>
</svg>
