<?xml version="1.0" encoding="UTF-8"?>
<svg width="16px" height="16px" viewBox="0 0 16 16" version="1.1" xmlns="http://www.w3.org/2000/svg" xmlns:xlink="http://www.w3.org/1999/xlink">
    <title>虚拟人资产管理_选中</title>
    <g id="虚拟人资产管理" stroke="none" stroke-width="1" fill="none" fill-rule="evenodd">
        <g id="切图合集" transform="translate(-107.000000, -120.000000)" fill="currentColor" fill-rule="nonzero">
            <g id="编组-2" transform="translate(86.000000, 120.000000)">
                <g id="虚拟人资产管理-选中" transform="translate(21.000000, 0.000000)">
                    <rect id="矩形" opacity="0" x="0" y="0" width="16" height="16"></rect>
                    <path d="M5.80187433,9.99998802 C5.79872447,9.9973658 5.79642203,9.99413598 5.79319222,9.99157772 C4.72298981,9.1453035 4.26635542,8.27894687 4.26635542,7.09480573 C4.26635542,6.82526048 4.04789553,6.60673664 3.77828633,6.60673664 C3.50867713,6.60673664 3.29020125,6.82527647 3.29020125,7.09480573 C3.29020125,8.39597155 3.76025056,9.45477367 4.75944511,10.3890522 C3.23866819,11.58106 2.39444056,12.8028077 1.9818563,14.387925 C1.9140143,14.6488041 2.0703563,14.9154073 2.33123542,14.9832494 C2.37255141,14.9938981 2.41385141,14.9991426 2.45452783,14.9991426 C2.67140478,14.9991426 2.86936656,14.8534494 2.9265598,14.6338862 C3.31978119,13.1228627 4.18663347,11.9790942 5.82483477,10.8093433 C6.044254,10.6526815 6.09508353,10.3478801 5.93843775,10.1285408 C5.90057541,10.0754888 5.85375916,10.0327978 5.80187433,9.99998802 Z M14.032518,14.3863421 C13.6158565,12.8075405 12.7837007,11.595914 11.2963731,10.4240365 C12.318592,9.48978992 12.7992901,8.41941164 12.7992901,7.0948217 C12.7992901,6.82527645 12.5808302,6.60675261 12.311221,6.60675261 C12.0416118,6.60675261 11.8231359,6.82529244 11.8231359,7.0948217 C11.8231359,8.27838725 11.3459395,9.17715387 10.2786151,10.0048967 C10.2118604,10.0393373 10.1512774,10.0877365 10.104685,10.1530842 C9.94802323,10.3724235 9.99886877,10.6772248 10.218288,10.8338866 C11.8523641,12.0007755 12.6840882,13.1021248 13.0887578,14.6354692 C13.1464307,14.8544087 13.3440727,14.9991426 13.5603101,14.9991426 C13.6014662,14.9991426 13.6434058,14.9938981 13.6851854,14.9827857 C13.9457608,14.9139683 14.1013033,14.6470613 14.032518,14.3863421 Z M3.71169147,6.07361009 C3.97653591,6.02776917 4.15433536,5.77547623 4.10951775,5.51037597 C4.10713536,5.4966253 3.88725245,4.12748956 4.73391041,3.1256728 C5.37435619,2.36773867 6.47268352,1.9834872 7.99840108,1.9834872 C9.52538178,1.9834872 10.6264273,2.36845819 11.2711582,3.12765545 C12.1225969,4.13017575 11.9097012,5.49900767 11.9076226,5.51091959 C11.8620216,5.77656348 12.0402847,6.02895237 12.3060885,6.07461741 C12.3340535,6.07946212 12.3618587,6.08176456 12.389344,6.08176456 C12.6225779,6.08176456 12.8288061,5.91399031 12.8698023,5.67631145 C12.8823538,5.60282528 13.1659535,3.86111016 12.0237679,2.50580506 C11.18584,1.51148722 9.83139831,1.007365 7.99841708,1.007365 C6.16557973,1.007365 4.81368033,1.51140727 3.97989364,2.5055972 C2.84247281,3.86194161 3.1349785,5.60509575 3.14800966,5.67864587 C3.19485789,5.94349031 3.44779039,6.11985073 3.71169147,6.07361009 Z M6.27197161,5.73305698 C6.00234642,5.73305698 5.78388653,5.95159681 5.78388653,6.22114206 L5.78388653,6.74178106 C5.78388653,7.01132631 6.00234642,7.22985016 6.27197161,7.22985016 C6.5415968,7.22985016 6.7600407,7.01131033 6.7600407,6.74178106 L6.7600407,6.22114206 C6.7600407,5.95159681 6.54158081,5.73305698 6.27197161,5.73305698 Z M9.74283436,5.73305698 C9.47320917,5.73305698 9.25474928,5.95159681 9.25474928,6.22114206 L9.25474928,6.74178106 C9.25474928,7.01132631 9.47320917,7.22985016 9.74283436,7.22985016 C10.0124595,7.22985016 10.2309035,7.01131033 10.2309035,6.74178106 L10.2309035,6.22114206 C10.2309194,5.95159681 10.0124595,5.73305698 9.74283436,5.73305698 Z M9.21101892,7.79666586 C8.98731459,7.64962955 8.68623872,7.71230705 8.53658019,7.93353306 C8.53451759,7.93655502 8.32384442,8.24223577 8.00259023,8.24223577 C7.690242,8.24223577 7.49576586,7.95911572 7.4827347,7.93949702 C7.33926397,7.71420977 7.04073038,7.64548836 6.81338053,7.78697642 C6.58443177,7.92924797 6.51404748,8.23024389 6.65641495,8.45919266 C6.83165614,8.7411295 7.31227428,9.21838992 8.00259025,9.21838992 C8.68958047,9.21838992 9.17622653,8.74469509 9.35544902,8.46474089 C9.49954331,8.23977344 9.43408369,7.94354228 9.21101892,7.79666586 Z" id="形状"></path>
                </g>
            </g>
        </g>
    </g>
</svg>
