<?xml version="1.0" encoding="UTF-8"?>
<svg width="23px" height="28px" viewBox="0 0 23 28" version="1.1" xmlns="http://www.w3.org/2000/svg" xmlns:xlink="http://www.w3.org/1999/xlink">
    <title>LOGO</title>
    <g id="虚拟人资产管理" stroke="none" stroke-width="1" fill="none" fill-rule="evenodd">
        <g id="切图合集" transform="translate(-38.000000, -56.000000)" fill="#E02020" fill-rule="nonzero">
            <g id="LOGO" transform="translate(38.000000, 56.000000)">
                <path d="M6.99907964,0.00579855318 C8.06474858,-0.0208602912 9.1307118,0.0444367626 10.1858642,0.201009455 C12.0808552,0.498017453 13.6852604,1.0034101 14.9990796,1.71718738 C14.9480725,2.09443544 14.8993839,2.47168351 14.8437398,2.84533873 C13.764476,10.1172442 13.3285971,17.471785 12.3154106,24.7616547 C12.1809373,25.7293259 12.0487826,26.7017876 11.8598245,27.6598779 C11.4432665,27.7868249 11.007774,27.9001989 10.5533471,28 C10.4362627,27.421553 10.3470002,26.833525 10.25426,26.2502876 C9.29439916,20.2442589 8.85388329,14.1555949 8.16760594,8.10645218 L8.16760594,8.10645218 L7.94338119,6.12498293 C7.71520774,4.14437447 7.46046205,2.16898685 7.04660898,0.222566487 C7.0315387,0.151907327 7.01878693,0.0812481656 6.99907964,0.00579855318 Z M4.99907964,0 C4.68542801,1.24916944 4.52350217,2.55753549 4.33352618,3.84415584 C3.25359556,11.1434612 2.76271801,18.3352461 1.62668711,25.4750831 C1.49281141,26.3183328 1.38188583,27.1724555 1.19955988,28 C0.46894503,27.5310031 0.0277059142,26.752177 0.0189037463,25.9160375 C0.0100173365,25.55306 0.00335545613,25.1449316 0.00054570156,24.6921901 L2.5172529e-13,23.8291894 C0.0119936553,21.2987712 0.1447044,17.661093 0.601581776,12.9833887 C1.1638597,7.25823014 1.75928779,3.90697674 2.15836487,2.0948354 C2.40061613,1.00392631 3.31352088,0.181214135 4.41002658,0.0579885231 C4.60892761,0.0362428269 4.80400363,0.0193295077 4.99907964,0 Z M6.50734175,0 C6.84580329,1.37048959 7.00876625,2.78101067 7.19566084,4.17858039 C8.10848135,10.9968839 8.56774061,17.8752346 9.53526198,24.6888284 C9.67543292,25.6743094 9.79509104,26.6621451 9.99907964,27.6193685 C9.32215656,27.7453499 8.60876625,27.8454286 7.85321069,27.914895 C6.2311784,28.0656018 4.41275485,28.0161511 2.39794004,27.766543 C2.26266394,27.7490998 2.12917537,27.7191524 1.99907964,27.6770609 C2.1620426,26.8823182 2.2589087,26.0628502 2.37856682,25.2563336 C3.17856682,19.8897601 3.62415086,14.444301 4.21902266,9.03769598 L4.21902266,9.03769598 L4.43526237,7.04118028 C4.68845391,4.71170846 4.96470167,2.38579789 5.47258391,0.108320483 C5.48170072,0.0941917247 5.48170072,0.080062966 5.48170072,0.0659342073 C5.83041867,0.0364992933 6.17343861,0.0141287587 6.50734175,0 Z M15.4309976,2 C16.251072,2.44481224 17.0159455,2.96813666 17.7124357,3.56095377 C17.7254502,3.63635078 17.7371633,3.71646011 17.7488763,3.79656944 C18.6729043,9.67635832 19.2012921,15.5396541 19.9990796,21.3970595 L19.9990796,21.3970595 L19.9782565,21.4276896 C19.2135069,22.5030804 18.2836331,23.4745178 17.2165841,24.3128034 C16.0504868,25.2560514 14.6123869,26.0496835 12.9022845,26.6936996 C12.6120616,26.8032609 12.3088242,26.9033976 11.9990796,27 C12.0251086,26.8515621 12.052439,26.7031243 12.0810709,26.5558645 C13.2055218,20.8009519 13.674043,14.9400123 14.4054567,9.12030536 C14.7060912,6.73940908 14.9663808,4.35615664 15.4309976,2 Z M18.9990796,4 C19.2089587,4.20946978 19.4093594,4.421267 19.5962195,4.64237399 C20.5350693,5.73056042 21.2786019,6.9336671 21.801981,8.21150629 C22.2558461,9.32432851 22.5823653,10.4725359 22.7769032,11.6398284 C22.9281121,12.4912767 23.0023561,13.3515119 22.9989688,14.2128155 C22.9792934,14.8291181 22.9132581,15.4436818 22.8012762,16.0526584 C22.6356166,16.7601069 22.4019162,17.454517 22.102582,18.1287366 C21.8240068,18.7733295 21.4890485,19.3988716 21.1005786,20 C20.3883438,14.7201978 19.9239017,9.31936868 18.9990796,4 Z" id="形状结合"></path>
            </g>
        </g>
    </g>
</svg>